<svg width="122" height="102" viewBox="0 0 122 102" fill="none" xmlns="http://www.w3.org/2000/svg">
<!-- White background removed for favicon transparency -->
<!-- <rect width="122" height="102" fill="white"/> -->
<path d="M37.5 52.5V59.6459C37.5 61.8517 38.0136 64.0271 39 66L40.5 67.5L42 69L43.5 69.5L46 70L45 74.5L44.5 78H45L47.5 76L50 74.5L53 73L55.5 72.5H61.5H70.5L74.5 72L77.5 70L79 67.5L79.5 65.5V62.5V56V50.5V44.5L79 43.5L78.5 42.5L77 41V42L78.5 44V56V64.5L77 67.5L74.5 69L73 69.5L67.5 70H60.5L63.5 69H66H68.5H71L74 68.5L76 67L77 66L77.5 65L78 64V62.5V51V48.5V46.5H77V62.5L76.5 64L75.5 65.5L73 67L64 67.5L60.5 68L55.5 69.5L60.5 67.5L62.5 67L64.3993 66.7287C65.4651 66.5764 66.5403 66.5 67.617 66.5H67.8009C68.9317 66.5 70.0606 66.4066 71.176 66.2207C72.0573 66.0738 72.9258 65.8581 73.7734 65.5755L74 65.5L75 64.5L76 63.5L76.5 61.5V53.5V42.5L76 40.5L74.5 38.5L71.5 37H63V38H71.5L74 39.5L75.5 42V62L74.5 63.5L73.5 64.5L72 65L63.0673 65.7768C61.3628 65.925 59.6844 66.2913 58.0732 66.8667L53.5 68.5L56 67L58.5 66L64 64.5L61 65L57 65.5H54H52.5811C51.5339 65.5 50.4935 65.3312 49.5 65L48 64.5L47.016 64.008C46.3431 63.6715 45.7288 63.2288 45.1968 62.6968L42 59.5C42.6576 59.8288 43.3828 60 44.1181 60H44.5H45.5C46.4781 60 47.4343 59.7105 48.2481 59.1679L50 58L48.1782 58.6073C47.4045 58.8652 46.5795 58.9299 45.775 58.7958L45.2848 58.7141C44.4381 58.573 43.6316 58.2519 42.9196 57.7724L40.5 56.1429L37.5 52.5Z" fill="#0D0000"/>
<path d="M50.5 49.5C51.5 53 51 57.5 47 58C44 59 37 52.5 37.5 48C37.5 44 38.5352 42.495 42 42C45.5 41.5 49.5 46 50.5 49.5Z" fill="black"/>
<path d="M49 30L53 28L55 27.5L56.8612 27L56.5 29.5L55.5 31L54 33.5L52 35.5L50 37L47.5 38.5L42.5 40.5L43 37.5L44.5 34.5L46.5 32L49 30Z" fill="#0E0000"/>
<path d="M53.5 36.7037L57.7987 36.6111L60.2338 36.7037L61.5 37L62.0602 37.5185L61 38.5L59.5 39.5L57.5 40.5L54.2714 42H52.5H49.5H48L44.5 40.7778L45.5 40.5L47.4494 39.5556L48.5 39L49.9009 38.1296L51.5 37.5L53.5 36.7037Z" fill="#0E0000"/>
<path d="M54.2701 48C53.8912 48 53.6237 47.6288 53.7435 47.2694L53.9273 46.7181C53.9751 46.5747 54.0557 46.4443 54.1626 46.3374L54.6779 45.8221C54.8913 45.6087 55.1376 45.4312 55.4074 45.2963C55.7971 45.1014 56.2268 45 56.6626 45H57H57.0396C57.6658 45 58.278 45.1854 58.7991 45.5327L59.0075 45.6717C59.3302 45.8868 59.5912 46.1825 59.7647 46.5294L59.9146 46.8292C59.9708 46.9415 60 47.0654 60 47.191V47.6464C60 47.8417 59.8417 48 59.6464 48C59.5527 48 59.4628 47.9628 59.3964 47.8964L58.5 47L58.1937 46.6937C58.0654 46.5654 57.9173 46.4586 57.755 46.3775C57.2797 46.1399 56.7203 46.1399 56.245 46.3775L56 46.5L55.2678 46.8661C55.1037 46.9482 55 47.1159 55 47.2994C55 47.4278 54.949 47.551 54.8581 47.6419L54.6626 47.8374C54.5585 47.9415 54.4173 48 54.2701 48Z" fill="#130101"/>
<path d="M63.8438 48C63.4329 48 63.1463 47.5926 63.2851 47.2058L63.4597 46.7194C63.5115 46.5752 63.597 46.4456 63.7093 46.3414L64.2523 45.8372C64.4929 45.6138 64.767 45.4296 65.0648 45.2913C65.4782 45.0994 65.9284 45 66.3841 45H66.7692H66.8668C67.507 45 68.1345 45.1785 68.6789 45.5155L68.9645 45.6923C69.2901 45.8939 69.5571 46.1775 69.7387 46.5147L69.9045 46.8227C69.9672 46.9391 70 47.0692 70 47.2014V47.6134C70 47.8269 69.8269 48 69.6134 48C69.5158 48 69.4218 47.9631 69.3503 47.8967L68.3846 47L68.0672 46.7053C67.9208 46.5693 67.7538 46.4571 67.5725 46.373C67.0631 46.1364 66.4754 46.1364 65.9659 46.373L65.6923 46.5L64.8848 46.8749C64.7205 46.9512 64.6154 47.1159 64.6154 47.297C64.6154 47.4265 64.5615 47.55 64.4667 47.6381L64.2477 47.8414C64.1379 47.9433 63.9936 48 63.8438 48Z" fill="black"/>
<path d="M67 51C66.6712 51.6576 66.1938 52.2297 65.6056 52.6708L65.2308 52.9519C64.7472 53.3146 64.2046 53.5908 63.6269 53.7685C63.1279 53.922 62.6087 54 62.0866 54H61.4056C60.4877 54 59.5888 53.7379 58.8148 53.2444L58.7728 53.2176C58.2026 52.8541 57.7122 52.3785 57.3314 51.8197L57 51.3333L56.845 51.075C56.6589 50.7648 56.7762 50.3619 57.0997 50.2001C57.3388 50.0806 57.6275 50.1275 57.8164 50.3164L59 51.5L59.2428 51.7428C59.7333 52.2333 60.3746 52.5444 61.0634 52.6261C61.2908 52.6531 61.5205 52.6547 61.7483 52.6308L62.4811 52.5542C62.8257 52.5182 63.1643 52.4388 63.4889 52.3179C64.0513 52.1085 64.561 51.7786 64.9823 51.3513L65 51.3333L65.8 50.2667C65.9259 50.0988 66.1235 50 66.3333 50C66.7015 50 67 50.2985 67 50.6667V51Z" fill="#150000"/>
<path d="M55.86 50.1091C55.86 50.7816 54.0307 51.9358 54.0307 51.3268C53.421 51.3269 54.0307 51.1725 54.0307 50.4999C54.0307 49.8274 54.9135 49.5002 55.2502 49.5002C55.587 49.5002 55.86 49.4366 55.86 50.1091Z" fill="#8D8080" fill-opacity="0.56"/>
<path d="M53.5 50.0105C53.5 50.5726 51.9575 51.5372 51.9575 51.0282C51.4433 51.0283 51.9575 50.8992 51.9575 50.3371C51.9575 49.775 52.7018 49.5015 52.9858 49.5015C53.2698 49.5015 53.5 49.4484 53.5 50.0105Z" fill="#8D8080" fill-opacity="0.56"/>
<path d="M72.131 49.6105C72.131 50.283 70.3018 51.4372 70.3018 50.8282C69.692 50.8283 70.3017 50.6739 70.3017 50.0013C70.3017 49.3288 71.1845 49.0016 71.5213 49.0016C71.858 49.0016 72.131 48.938 72.131 49.6105Z" fill="#988D8D" fill-opacity="0.56"/>
<path d="M69.771 49.5119C69.771 50.074 68.2285 51.0386 68.2285 50.5296C67.7144 50.5297 68.2285 50.4006 68.2285 49.8385C68.2285 49.2764 68.9729 49.003 69.2568 49.003C69.5408 49.003 69.771 48.9498 69.771 49.5119Z" fill="#988D8D" fill-opacity="0.56"/>
<path d="M58 57.4999C58 57.2238 58.2239 56.9999 58.5 56.9999H70C70.2762 56.9999 70.5 57.2238 70.5 57.4999C70.5 57.7761 70.2762 57.9999 70 57.9999H58.5C58.2239 57.9999 58 57.7761 58 57.4999Z" fill="#0C0000"/>
<path d="M59.5 60.4999C59.5 60.2238 59.697 59.9999 59.94 59.9999H70.06C70.303 59.9999 70.5 60.2238 70.5 60.4999C70.5 60.7761 70.303 60.9999 70.06 60.9999H59.94C59.697 60.9999 59.5 60.7761 59.5 60.4999Z" fill="black"/>
<path d="M43 39.3948C43 39.2764 44.0748 37.7946 44.9409 36.6937C45.5769 35.8853 46.4152 35.1038 47.1592 34.3936L49.5555 32.1064C50.2996 31.3962 51.2284 30.7467 52.1032 30.2058C53.0822 29.6005 54.2148 28.8881 54.2148 29C54.2148 29.1084 53.2439 29.9062 52.367 30.5718C51.522 31.2132 50.5786 31.9214 49.8284 32.6716L49.6716 32.8284C48.9214 33.5786 48.0393 34.3737 47.2887 35.1234C45.6664 36.7437 43 39.5301 43 39.3948Z" fill="white"/>
<path d="M45.5001 44.9998C46.2679 45.8525 46.4424 47.1015 46.0001 47.4997C45.5577 47.898 44.2679 47.3525 43.5001 46.4997C42.5 45.4997 42.5577 44.398 43 43.9997C43.4424 43.6015 44.7322 44.147 45.5001 44.9998Z" fill="white" fill-opacity="0.85"/>
<path d="M39.698 43.7216C39.3729 44.0131 39.2991 44.44 39.4863 44.5762C39.6736 44.7123 40.2197 44.5258 40.5448 44.2343C40.9682 43.8925 40.9437 43.5159 40.7565 43.3798C40.5692 43.2436 40.0231 43.4301 39.698 43.7216Z" fill="white" fill-opacity="0.85"/>
<ellipse cx="47.5" cy="49" rx="0.5" ry="1" transform="rotate(-22 47.5 49)" fill="#FFFAFA" fill-opacity="0.74"/>
</svg>
